HIERARCHY
ROOT Hips
{
    OFFSET 0.000000 0.000000 0.000000
    CHANNELS 6 Xposition Yposition Zposition Zrotation Yrotation Xrotation
    JOINT LeftUpLeg
    {
        OFFSET 1.623290 -1.808000 0.673180
        CHANNELS 3 Zrotation Yrotation Xrotation
        JOINT LeftLeg
        {
            OFFSET 2.571390 -7.064839 0.000000
            CHANNELS 3 Zrotation Yrotation Xrotation
            JOINT LeftFoot
            {
                OFFSET 2.520170 -6.924130 0.000000
                CHANNELS 3 Zrotation Yrotation Xrotation
                JOINT LeftToeBase
                {
                    OFFSET 0.232950 -0.640010 2.102140
                    CHANNELS 3 Zrotation Yrotation Xrotation
                    End Site
                    {
                        OFFSET 0.000000 0.000000 0.000000
                    }
                }
            }
        }
    }
    JOINT RightUpLeg
    {
        OFFSET -1.480610 -1.808000 0.673180
        CHANNELS 3 Zrotation Yrotation Xrotation
        JOINT RightLeg
        {
            OFFSET -2.632580 -7.232960 0.000000
            CHANNELS 3 Zrotation Yrotation Xrotation
            JOINT RightFoot
            {
                OFFSET -2.547790 -7.000000 0.000000
                CHANNELS 3 Zrotation Yrotation Xrotation
                JOINT RightToeBase
                {
                    OFFSET -0.230670 -0.633760 2.121610
                    CHANNELS 3 Zrotation Yrotation Xrotation
                    End Site
                    {
                        OFFSET 0.000000 0.000000 0.000000
                    }
                }
            }
        }
    }
    JOINT Spine
    {
        OFFSET -0.021080 2.075730 -0.169810
        CHANNELS 3 Zrotation Yrotation Xrotation
        JOINT Spine1
        {
            OFFSET 0.050700 2.084390 -0.031410
            CHANNELS 3 Zrotation Yrotation Xrotation
            JOINT Neck1
            {
                OFFSET -0.107310 1.604080 0.313700
                CHANNELS 3 Zrotation Yrotation Xrotation
                JOINT Head
                {
                    OFFSET 0.084110 1.656790 -0.308220
                    CHANNELS 3 Zrotation Yrotation Xrotation
                    End Site
                    {
                        OFFSET 0.000000 0.000000 0.000000
                    }
                }
            }
            JOINT LeftShoulder
            {
                OFFSET 0.000000 0.000000 0.000000
                CHANNELS 3 Zrotation Yrotation Xrotation
                JOINT LeftArm
                {
                    OFFSET 3.523150 0.732190 -0.546940
                    CHANNELS 3 Zrotation Yrotation Xrotation
                    JOINT LeftForeArm
                    {
                        OFFSET 5.324620 -0.000000 -0.000000
                        CHANNELS 3 Zrotation Yrotation Xrotation
                        JOINT LeftHand
                        {
                            OFFSET 3.484020 -0.000000 -0.000000
                            CHANNELS 3 Zrotation Yrotation Xrotation
                            End Site
                            {
                                OFFSET 0.000000 0.000000 0.000000
                            }
                        }
                    }
                }
            }
            JOINT RightShoulder
            {
                OFFSET 0.000000 0.000000 0.000000
                CHANNELS 3 Zrotation Yrotation Xrotation
                JOINT RightArm
                {
                    OFFSET -3.417660 0.935920 -0.100190
                    CHANNELS 3 Zrotation Yrotation Xrotation
                    JOINT RightForeArm
                    {
                        OFFSET -5.335890 -0.000000 -0.000000
                        CHANNELS 3 Zrotation Yrotation Xrotation
                        JOINT RightHand
                        {
                            OFFSET -3.641340 -0.000000 -0.000000
                            CHANNELS 3 Zrotation Yrotation Xrotation
                            End Site
                            {
                                OFFSET 0.000000 0.000000 0.000000
                            }
                        }
                    }
                }
            }
        }
    }
}
MOTION
Frames: 6
Frame Time: 0.016667
-0.697700 16.668900 -2.237900 -0.849432 -6.705567 24.717104 -16.577948 -0.370607 -43.505363 -21.532042 -18.547281 52.249828 -4.174077 32.407761 -21.546715 -0.075745 -2.137427 0.623489 13.040268 5.616953 -38.887344 6.950890 6.645351 35.225342 2.687096 -29.981123 -23.469658 -0.279055 -0.039633 -2.201803 2.018923 -0.486524 6.488773 -1.155684 -0.214201 -2.116030 5.432962 -3.579276 14.542060 -4.639426 -0.354867 -5.738845 -0.263121 -8.353765 1.054936 -79.076836 -17.509232 48.754528 13.795034 -20.527088 -12.204818 4.665713 -2.285470 -7.394076 1.643236 8.441369 2.163174 71.574654 15.677265 27.573284 -12.060278 55.203968 -2.291638 -4.078961 3.040513 1.162597 
-0.697700 16.668900 -2.237900 -0.848882 -6.705027 24.717651 -16.579750 -0.368108 -43.501255 -21.530800 -18.543692 52.251949 -4.187730 32.410301 -21.548908 -0.075772 -2.136923 0.625061 13.042221 5.616973 -38.877934 6.944972 6.641522 35.214981 2.684234 -29.975723 -23.470354 -0.279055 -0.039635 -2.202825 2.019618 -0.486056 6.489925 -1.156266 -0.214716 -2.115793 5.433343 -3.579520 14.543833 -4.639279 -0.357329 -5.740827 -0.263727 -8.352863 1.056117 -79.086067 -17.507801 48.758499 13.778259 -20.511614 -12.191419 4.667385 -2.284197 -7.397588 1.644328 8.440867 2.163729 71.572937 15.678790 27.575493 -12.044776 55.191898 -2.269471 -4.084319 3.040254 1.171919 
-0.696000 16.670399 -2.231100 -0.849089 -6.756327 24.719358 -16.583996 -0.363732 -43.483593 -21.524597 -18.541388 52.246876 -4.217861 32.409027 -21.552019 -0.075780 -2.138891 0.624906 13.050137 5.615548 -38.863392 6.933887 6.628644 35.194687 2.690350 -29.970106 -23.477625 -0.279054 -0.039641 -2.205001 2.020103 -0.486052 6.488188 -1.157130 -0.213708 -2.114923 5.432780 -3.577903 14.545383 -4.638619 -0.356580 -5.742666 -0.266488 -8.352659 1.058119 -79.105103 -17.497364 48.767799 13.767040 -20.507206 -12.187963 4.662355 -2.284341 -7.400145 1.646511 8.442215 2.165117 71.566093 15.685061 27.572783 -12.021474 55.164444 -2.237711 -4.084505 3.038744 1.178078 
-0.695400 16.670099 -2.225800 -0.849548 -6.760553 24.721416 -16.589125 -0.357189 -43.461926 -21.521639 -18.539724 52.245144 -4.256886 32.395210 -21.568748 -0.077323 -2.141396 0.626034 13.058352 5.612941 -38.853630 6.918123 6.609601 35.172737 2.668593 -29.951138 -23.478710 -0.279053 -0.039644 -2.206243 2.020741 -0.485815 6.487692 -1.158048 -0.214227 -2.114269 5.432714 -3.575035 14.545595 -4.637208 -0.357353 -5.743983 -0.268114 -8.350689 1.059367 -79.125847 -17.485592 48.773212 13.751945 -20.498917 -12.168519 4.655479 -2.285239 -7.400095 1.649987 8.443971 2.166942 71.558235 15.691995 27.569584 -11.986498 55.124374 -2.198352 -4.083149 3.038243 1.178208 
-0.691600 16.668900 -2.216400 -0.852274 -6.693564 24.729191 -16.593119 -0.348508 -43.437008 -21.511604 -18.544788 52.231972 -4.300817 32.379723 -21.577507 -0.078893 -2.144170 0.630282 13.068677 5.609176 -38.841507 6.903789 6.589927 35.153057 2.656187 -29.929613 -23.489267 -0.279793 -0.019381 -2.207268 2.021247 -0.484516 6.487502 -1.159172 -0.212710 -2.113357 5.432748 -3.570523 14.545984 -4.635012 -0.355682 -5.744632 -0.269275 -8.349478 1.061339 -79.148254 -17.468534 48.784698 13.733796 -20.502010 -12.156519 4.642036 -2.286336 -7.399823 1.655423 8.446357 2.169354 71.552284 15.705151 27.566183 -11.941595 55.072861 -2.146892 -4.083164 3.037157 1.178017 
-0.686400 16.666201 -2.195100 -0.856367 -6.713152 24.736668 -16.595499 -0.336550 -43.411575 -21.503628 -18.553209 52.222950 -4.350955 32.362480 -21.596300 -0.081865 -2.145427 0.636072 13.078992 5.603612 -38.826401 6.889490 6.572172 35.134666 2.629907 -29.886814 -23.491955 -0.279793 -0.019386 -2.209527 2.022446 -0.482737 6.488389 -1.159865 -0.211688 -2.112534 5.432624 -3.562553 14.545180 -4.632903 -0.353956 -5.744347 -0.269837 -8.345048 1.062593 -79.172821 -17.445499 48.781342 13.723165 -20.506817 -12.143202 4.627299 -2.288347 -7.397786 1.661555 8.449419 2.173268 71.543144 15.709418 27.561527 -11.887988 55.015732 -2.096139 -4.080212 3.036022 1.172865 
